<?xml version="1.0" encoding="iso-8859-1"?>
<!-- Uploaded to: SVG Repo, www.svgrepo.com, Generator: SVG Repo Mixer Tools -->
<!DOCTYPE svg PUBLIC "-//W3C//DTD SVG 1.1//EN" "http://www.w3.org/Graphics/SVG/1.1/DTD/svg11.dtd">
<svg fill="#317773" version="1.1" id="Capa_1" xmlns="http://www.w3.org/2000/svg" xmlns:xlink="http://www.w3.org/1999/xlink" 
	 width="800px" height="800px" viewBox="0 0 358.703 358.703"
	 xml:space="preserve">
<g>
	<g>
		<g>
			<path d="M304.936,40.68l-47.21,47.216H0l43.787,64.477H194.97v12.103H51.996l40.938,59.934H215.86l-12.651,41.139h-99.962v0.199
				c-13.511,1.032-24.226,12.243-24.226,26.024c0,14.472,11.775,26.253,26.25,26.253c14.462,0,26.238-11.775,26.238-26.253
				c0-5.206-1.576-10.046-4.201-14.13h43.811c-2.627,4.084-4.2,8.924-4.2,14.13c0,14.472,11.775,26.253,26.25,26.253
				c14.466,0,26.235-11.775,26.235-26.253c0-6.491-2.45-12.376-6.377-16.964l55.593-180.675l41.343-41.34h48.741V40.68H304.936z
				 M105.264,305.912c-7.797,0-14.132-6.336-14.132-14.136c0-7.782,6.335-14.136,14.132-14.136c7.792,0,14.124,6.354,14.124,14.136
				C119.388,299.576,113.056,305.912,105.264,305.912z M193.162,305.912c-7.797,0-14.129-6.336-14.129-14.136
				c0-7.782,6.338-14.136,14.129-14.136c7.795,0,14.13,6.354,14.13,14.136C207.292,299.576,200.957,305.912,193.162,305.912z"/>
		</g>
	</g>
</g>
</svg>